<svg width="24" height="24" viewBox="0 0 24 24" fill="none" xmlns="http://www.w3.org/2000/svg">
<path fill-rule="evenodd" clip-rule="evenodd" d="M7.78192 4.4269L8.34692 2.9999C8.41492 2.8669 8.60692 2.8669 8.67492 2.9999L9.23992 4.4269L10.3549 4.9889C10.4899 5.0559 10.4899 5.2469 10.3549 5.3149L9.23992 5.8769L8.67492 7.3039C8.60692 7.4369 8.41492 7.4369 8.34692 7.3039L7.78192 5.8769L6.66692 5.3149C6.53192 5.2469 6.53192 5.0559 6.66692 4.9889L7.78192 4.4269Z" fill="white"/>
<path fill-rule="evenodd" clip-rule="evenodd" d="M17.6091 18.0419L18.1741 16.6139C18.2421 16.4809 18.4341 16.4809 18.5021 16.6139L19.0671 18.0419L20.1821 18.6029C20.3161 18.6709 20.3161 18.8619 20.1821 18.9289L19.0671 19.4909L18.5021 20.9179C18.4341 21.0519 18.2421 21.0519 18.1741 20.9179L17.6091 19.4909L16.4941 18.9289C16.3591 18.8619 16.3591 18.6709 16.4941 18.6029L17.6091 18.0419Z" fill="white"/>
<path fill-rule="evenodd" clip-rule="evenodd" d="M7.64596 8.75803C7.79696 8.45403 8.22296 8.45403 8.37396 8.75803L8.88796 10.092L8.47696 10.302C7.04496 11.054 7.31796 12.454 8.44496 12.95L8.47696 12.967L11.247 14.372L11.274 14.442L9.62596 15.295L8.37396 18.538C8.22296 18.842 7.79696 18.842 7.64596 18.538L6.39396 15.295L3.92396 14.019C3.62496 13.865 3.62496 13.431 3.92396 13.277L6.39396 12.001L7.64596 8.75803Z" fill="white"/>
<path fill-rule="evenodd" clip-rule="evenodd" d="M16.3279 9.46197L14.6339 5.14797C14.4289 4.74397 13.8529 4.74397 13.6479 5.14797L11.9529 9.46197L8.60891 11.159C8.20491 11.363 8.20491 11.94 8.60891 12.145L11.9529 13.842L13.6479 18.156C13.8529 18.56 14.4289 18.56 14.6339 18.156L16.3279 13.842L19.6729 12.145C20.0759 11.94 20.0759 11.363 19.6729 11.159L16.3279 9.46197Z" fill="white"/>
</svg>
