<svg width="24" height="24" viewBox="0 0 24 24" fill="none" xmlns="http://www.w3.org/2000/svg">
<path d="M12.153 3.24991V5.16091M12.153 19.1454V21.0564M21.0558 12.1532H19.1458M5.16031 12.1532H3.25031M12.153 5.15321C16.019 5.15321 19.153 8.28721 19.153 12.1532C19.153 16.0182 16.019 19.1532 12.153 19.1532C8.28701 19.1532 5.15301 16.0182 5.15301 12.1532C5.15301 8.28721 8.28701 5.15321 12.153 5.15321ZM12.153 9.02821C10.427 9.02821 9.02801 10.4272 9.02801 12.1532C9.02801 13.8792 10.427 15.2782 12.153 15.2782C13.879 15.2782 15.278 13.8792 15.278 12.1532C15.278 10.4272 13.879 9.02821 12.153 9.02821Z" stroke="white" stroke-width="1.5" stroke-linecap="round" stroke-linejoin="round"/>
</svg>
