<svg width="24" height="24" viewBox="0 0 24 24" fill="none" xmlns="http://www.w3.org/2000/svg">
<path d="M9.3001 8.79998C9.6001 7.49998 10.7001 6.49998 12.1001 6.49998C13.7001 6.49998 14.9001 7.79998 14.9001 9.29998C14.9001 9.79998 14.6001 11 13.4001 11.8C12.8001 12.2 12.7001 12.6 12.7001 12.9C12.7001 13.3 12.4001 13.7 12.0001 13.7C11.6001 13.7 11.3001 13.4 11.3001 13C11.3001 12 11.7001 11.2 12.6001 10.6C13.4001 9.99998 13.4001 9.39998 13.4001 9.29998C13.4001 8.59998 12.8001 7.99998 12.1001 7.99998C11.5001 7.99998 10.9001 8.49998 10.8001 9.09998C10.7001 9.49998 10.3001 9.79998 9.9001 9.69998C9.5001 9.59998 9.2001 9.19998 9.3001 8.79998ZM12.0001 16.8C11.4001 16.8 11.0001 16.4 11.0001 15.8C11.0001 15.2 11.4001 14.8 12.0001 14.8C12.6001 14.8 13.0001 15.2 13.0001 15.8C13.0001 16.4 12.6001 16.8 12.0001 16.8ZM12.0001 20.4C16.6001 20.4 20.4001 16.7 20.4001 12C20.4001 7.39998 16.7001 3.59998 12.0001 3.59998C7.4001 3.59998 3.6001 7.29998 3.6001 12C3.6001 16.6 7.4001 20.4 12.0001 20.4Z" fill="white"/>
</svg>
