<svg width="24" height="24" viewBox="0 0 24 24" fill="none" xmlns="http://www.w3.org/2000/svg">
<path fill-rule="evenodd" clip-rule="evenodd" d="M7.68069 8.11596C7.68069 5.6604 9.61821 3.66204 11.999 3.66204C14.3815 3.66204 16.3199 5.6604 16.3199 8.11596V10.274H7.68069V8.11596ZM20.3999 11.9556C20.3999 11.0312 19.6442 10.274 18.7199 10.274H18.2798V8.11596C18.2798 4.57836 15.4627 1.70004 11.999 1.70004C8.53785 1.70004 5.72061 4.57836 5.72061 8.11596V10.274H5.28021C4.35621 10.274 3.59985 11.0312 3.59985 11.9556V20.6184C3.59985 21.5436 4.35621 22.3 5.28021 22.3H18.7199C19.6442 22.3 20.3999 21.5436 20.3999 20.6184V11.9556Z" fill="white"/>
</svg>
