<svg width="24" height="24" viewBox="0 0 24 24" fill="none" xmlns="http://www.w3.org/2000/svg">
<path d="M20.1784 14.3L18.7784 12.9C18.5784 12.7 18.4784 12.4 18.4784 12.2C18.4784 12.2 18.4784 12.2 18.4784 12C18.4784 11.8 18.4784 11.8 18.4784 11.8C18.4784 11.6 18.5784 11.3 18.7784 11.1L20.1784 9.7C20.3784 9.5 20.3784 9.2 20.2784 8.9L18.7784 6.3C18.6784 6.1 18.2784 5.9 18.0784 6L16.1784 6.5C15.8784 6.6 15.5784 6.5 15.3784 6.4C15.1784 6.3 14.6784 5.8 14.5784 5.5L14.0784 3.6C13.9784 3.3 13.7784 3.1 13.4784 3.1H10.4784C10.1784 3.1 9.87836 3.3 9.87836 3.6L9.37836 5.5C9.27836 5.8 9.07836 6.1 8.87836 6.2C8.67836 6.3 7.97836 6.5 7.77836 6.5L5.87836 6C5.57836 5.9 5.27836 6.1 5.17836 6.3L3.67836 8.9C3.57836 9.1 3.57836 9.5 3.77836 9.7L5.17836 11.1C5.37836 11.3 5.47836 11.6 5.47836 11.8C5.47836 11.8 5.47836 11.8 5.47836 12C5.47836 12.2 5.47836 12.2 5.47836 12.2C5.47836 12.4 5.37836 12.7 5.17836 12.9L3.77836 14.3C3.57836 14.5 3.57836 14.8 3.67836 15.1L5.17836 17.7C5.27836 17.9 5.67836 18.1 5.87836 18L7.77836 17.5C8.07836 17.4 8.37836 17.5 8.57836 17.6C8.77836 17.7 9.27836 18.2 9.37836 18.5L9.87836 20.4C9.97836 20.7 10.1784 20.9 10.4784 20.9H13.4784C13.7784 20.9 14.0784 20.7 14.0784 20.4L14.5784 18.5C14.6784 18.2 14.8784 17.9 15.0784 17.8C15.2784 17.7 15.9784 17.5 16.1784 17.5L18.0784 18C18.3784 18.1 18.6784 17.9 18.7784 17.7L20.2784 15.1C20.4784 14.9 20.3784 14.5 20.1784 14.3ZM12.0784 15C10.3784 15 9.07836 13.7 9.07836 12C9.07836 10.3 10.3784 9 12.0784 9C13.7784 9 15.0784 10.3 15.0784 12C15.0784 13.7 13.6784 15 12.0784 15Z" fill="white"/>
</svg>
